# xmcd
#
# Track frame offsets:
#	150
#	18660
#	32647
#	52025
#	68997
#	83292
#	99962
#	117447
#	136732
#	161920
#	178537
#	198890
#	218465
#	235170
#	251959
#	269777
#	289230
#
# Disc length: 4086 seconds
#
# Revision: 1
# Processed by: cddbd v1.4PL0 Copyright (c) Steve Scherf et al.
# Submitted via: audiograbber 1.81.03
#
DISCID=f30ff411
DTITLE=Canto e Encanto Nativo - Vol. 9
DYEAR=1998
DGENRE=Folk
TTITLE0=Osvaldir e Carlos Magrão - Lago Verde e Azul
TTITLE1=Os Serranos - Tropeiro de Rimas
TTITLE2=Leo Almeida - Tropeiros
TTITLE3=João Luiz Corrêa - China Atrevida
TTITLE4=Grupo Rodeio - Sina de Andejo
TTITLE5=Os Orelhanos - Saudade Orelhana
TTITLE6=Ivonir Machado - Coração de Potro
TTITLE7=Pala Velho - Orgulho de Gaúcho
TTITLE8=Xirú Missioneiro - Meu Canto Selvagem
TTITLE9=Os Mateadores - Quando o Verso vem pras Casa
TTITLE10=Crioulo dos Pampas - Canção de Tropeiro
TTITLE11=Adair de Freitas - Searas de Paz
TTITLE12=Os Mirins - Recuerdos do Mouro Negro
TTITLE13=Cesar Lindemeyer - Cabos Negros
TTITLE14=Grupo Legendas - Tardes de Verão
TTITLE15=Cesar Passarinho - Galope de Paz
TTITLE16=Omair Trindade - O Mate
EXTD=
EXTT0=
EXTT1=
EXTT2=
EXTT3=
EXTT4=
EXTT5=
EXTT6=
EXTT7=
EXTT8=
EXTT9=
EXTT10=
EXTT11=
EXTT12=
EXTT13=
EXTT14=
EXTT15=
EXTT16=
PLAYORDER=
